<?xml version="1.0" encoding="UTF-8"?>
<svg id="katman_1" data-name="katman 1" xmlns="http://www.w3.org/2000/svg" version="1.1" viewBox="0 0 634.51 507.68">
  <defs>
    <style>
      .cls-1 {
        fill: #18ad8a;
      }

      .cls-1, .cls-2, .cls-3, .cls-4, .cls-5, .cls-6, .cls-7 {
        stroke-width: 0px;
      }

      .cls-2 {
        fill: #225475;
      }

      .cls-3 {
        fill: #f38332;
      }

      .cls-4 {
        fill: #7dba62;
      }

      .cls-5 {
        fill: #efa044;
      }

      .cls-6 {
        fill: #f46229;
      }

      .cls-7 {
        fill: #0f3452;
      }
    </style>
  </defs>
  <path class="cls-3" d="M220.89,182.39l.63-.72c.33-.1.66-.36,1-.31.97.14,2.68,1.26,3.66,1.67,2.06.85,4.11,1.29,6.34,1.39,2.08.09,4.41-.04,6.35-.83,1.98-.8,4.53-2.97,6.4-3.41.48-.11,1.74.21,2.28.27-2.93,3.68-6.96,6.74-11.78,7.25-5.23.56-10.31-1.41-14.29-4.77l-.59-.53Z"/>
  <path class="cls-6" d="M408.11,49.5v47.13c2.27,1.67,5.51,3.85,5.94,6.83.34,2.4-.18,4.56-1.76,6.39-1.82,2.1-4.41,3.36-7.18,3.38-2.55.02-4.85-.92-6.6-2.78-1.47-1.57-2.18-3.72-2.08-5.86.1-2.1,1.44-5.03,3.12-6.36,1.01-.8.5-.28,1.47-.85l.9-.68.09-44.54,6.1-2.68Z"/>
  <path class="cls-5" d="M220.89,182.39c-3.77-3.21-6.22-7.94-6.98-12.82-.92-5.92.11-11.04,3.74-15.82,3.37-4.44,8.07-7.18,13.62-7.84,5.1-.61,10.64,1.48,14.51,4.81,4.18,3.61,6.83,8.85,7.19,14.37.35,5.36-2,11.29-5.41,15.36-.54-.07-1.8-.39-2.28-.27-1.87.44-4.42,2.61-6.4,3.41-1.94.79-4.26.92-6.35.83-2.23-.1-4.28-.53-6.34-1.39-.98-.41-2.69-1.53-3.66-1.67-.35-.05-.67.21-1,.31l-.63.72Z"/>
  <path class="cls-5" d="M394.26,145.78c3.78-.47,7.7-.49,11.26,1,5.16,2.17,8.91,6,10.93,11.23,2.12,5.45,1.96,11.16-.59,16.46-2.88,5.98-7.43,10.52-13.73,12.74-3.87,1.08-8.33.19-11.88-1.58-4.9-2.45-8.9-6.87-10.55-12.15-1.81-5.79-1.89-11.68,1.01-17.16,3.03-5.71,7.5-8.73,13.56-10.55Z"/>
  <path class="cls-5" d="M315.78,132.81c5.25-.2,9.67.67,14.2,3.52,5.62,3.55,9.37,9.39,10.79,15.85,1.55,7.1-.58,14.86-4.53,20.84-3.96,6-9.13,9.17-16.09,10.57-4.65.38-9.83-1.32-13.73-3.76-5.85-3.66-10.32-10.15-11.69-16.92-1.45-7.16.11-14.15,4.22-20.15,4.24-6.18,9.56-8.62,16.84-9.97Z"/>
  <path class="cls-7" d="M260.65,67.46l.51-1.99c.58-1.37,1.36-2.19,2.59-3.01,8.76-5.81,19.14-10.17,28.47-15.03l16.03-8.3c2.53-1.29,5.23-2.96,7.89-3.9,1.49-.52,2.6.26,3.97.84,8.38,3.57,16.31,8.16,24.47,12.17l16.95,8.23c3.88,1.91,7.98,3.81,11.38,6.53,1.39,1.11,2.02,2.48,2.67,4.1-2.33,1.07-5.43.69-7.97.69l-14.02-.04-50.1-.14-27.43.05c-5.07.01-10.38.35-15.41-.19Z"/>
  <path class="cls-3" d="M268.64,251.95c-21.8-18.33-46.22-37.61-74.46-44.46,5.71-5.55,10.81-10.2,18.58-12.64,5.96-1.88,12.09-1.77,18.26-1.84,10.89-.13,20.19-.27,30.01,5,3.86,2.07,6.71,4.41,7.97,8.78l.19.69c1.22,4.26,1.03,9.22,1.08,13.65l.14,21.16c.02,2.38-.49,6.27.47,8.37l.34.68-.94-.35-1.63.97Z"/>
  <path class="cls-3" d="M363.57,213.58c.75-6.15,1.9-11.58,7.08-15.61,4.71-3.66,12.54-5.82,18.46-4.92,3.67.55,7.41,1.68,11.16,1.09,3.22-.51,6.22-1.6,9.52-1.68,12.4-.33,25.96,7.84,33.5,17.34-20.7,6.37-41.71,15.09-59.46,27.61-6.58,4.64-12.41,10.28-18.91,14.88-.68-.37-1.37-.54-2.12-.76,1.96-2.71,1.09-9.07,1.06-12.36l-.29-25.58Z"/>
  <path class="cls-7" d="M81.33,318.42c7.87-.88,16.28-.05,24.02,1.44,1.82,1.98,3.13,5.45,4.41,7.89l7.08,12.91c-19.48-3.6-38.88-5.62-58.7-5.4-3.25.04-7.4-.41-10.47.67,23.93.66,46.59,4.16,68.99,12.98l6.03,2.84c-5.02,3.29-11.19,5.84-17.1,6.99-23.91,4.64-49.23-3.46-70.97-12.92-4.45-1.93-9.31-3.58-13.43-6.13,19.23-10.66,38-19.15,60.15-21.26Z"/>
  <path class="cls-1" d="M181.85,215.67c.96.08.58-.12,1.18.54,0,18.62.82,37.96-5.73,55.73-6.29,17.05-17.76,27.02-34.03,34.44,1.01-4.53,2.69-8.96,4.09-13.39,3.06-9.69,6.25-19.17,10.33-28.49l9.78-19.94c-1.3,1.23-2.18,2.86-3.13,4.37-7.45,11.72-14.81,24.06-20.83,36.61-2.7,5.64-4.89,11.58-7.27,17.37-4.51-9.39-6.5-18.08-3.99-28.45l1.03-4.13c6.59-22.84,28.33-43.44,48.58-54.65Z"/>
  <path class="cls-4" d="M449.54,213.56c6.82,4.26,13.39,9.93,19.43,15.23,13.19,11.57,27.19,24.58,33.12,41.53,3.43,9.8,1.15,17.97-3.16,26.96l-31.72-51.08c.04,1.48,1.07,3.01,1.72,4.33l6.41,12,9.22,18.3c3.85,8.35,7.1,17.14,9.95,25.87-9.45-1.96-16.83-4.85-23.93-11.57-13.26-12.55-16.61-27.62-18.73-45.12-1.47-12.09-1.94-24.29-2.3-36.45Z"/>
  <path class="cls-7" d="M544.26,315.93c24.12-.48,47.22,13.91,68.59,23.55l-35.45,14.95c-18.16,6.51-37.23,10.04-56.19,4.6-5.7-1.63-11.04-4.23-16.37-6.77,3.13-2.14,7.08-3.65,10.55-5.15,14.48-6.25,29.46-9.44,45.24-9.84,7.22-.18,14.48.66,21.64.12-23.35-3.23-49.4-4.93-71.99,2.91,2.23-5.71,4.59-12.29,8.83-16.85,5.73-6.16,17.32-7.07,25.15-7.53Z"/>
  <path class="cls-4" d="M205.76,129.67c.44.01,1.07.19,1.51.28-1.43,5.27-4.15,10.68-6.41,15.64-7.22,15.83-15.45,31.61-26.46,45.16-12.06,14.83-26.66,24.08-45.86,26.12.26-2.51,4.53-7.17,6.2-9.39,14.12-18.72,29.26-35.59,46.08-51.93l1.69-1.84-.24-.5c-5.82,3.8-11.4,9.54-16.63,14.23l-43.22,41.81c.03-7.35.67-14.64,3.88-21.36,3.59-7.53,9.28-14.35,14.93-20.42,9.95-10.7,21.18-19.82,34.34-26.29,9.67-4.76,20.02-7.99,30.19-11.5Z"/>
  <path class="cls-1" d="M0,223.89l7.02-.23c30.5-.37,64.33,4.46,87.15,26.87.62.61,2.89,2.47,3.14,3.18.31.88.03,2.99.04,4.05l.11,12.01c-14.73-9.85-31.28-18.23-47.62-25.08-6.65-2.79-13.35-5.7-20.35-7.47,1.68,1.7,7.74,3.49,10.2,4.64,14.45,6.53,27.95,14.76,40.8,24.03,6.57,4.73,13.1,9.51,18.78,15.3-7.12,2.42-14.8,2.86-22.23,1.98-14.25-1.7-25.99-9.35-36.96-18.04-15.07-11.93-28.07-26.25-40.05-41.24Z"/>
  <path class="cls-1" d="M518.49,46.35c3.01,4.53,5.3,9.9,7.65,14.81,7.27,15.15,15.56,32.85,16.88,49.8.31,3.98.51,7.77.08,11.76-1.48,13.75-9.6,25.26-20.17,33.74l-3.64-78.27v-.56s-.52-.32-.52-.32l-3.36,80.49c-7.35-5.56-13.4-15.35-15.98-24.17-6.15-20.95,1.52-45.98,9.27-65.6,2.9-7.33,6.01-14.78,9.8-21.69Z"/>
  <path class="cls-7" d="M23.49,126.74c25.25,6.12,51.21,19.14,67.89,39.53,10.38,12.7,14.13,24.97,12.44,41.32-16.18-19.76-33.73-39.38-52.89-56.3-2.48-2.2-5.78-5.67-8.73-7.01l.63.94c11.4,10.38,22.34,21.57,31.85,33.73,8.89,11.37,16.7,23.73,24.74,35.73-8.97.14-17.53-.97-25.39-5.54-12.7-7.38-20.9-19.69-27.91-32.24-5.63-10.09-10.45-20.34-14.99-30.96-2.66-6.21-5.91-12.66-7.62-19.2Z"/>
  <path class="cls-7" d="M607.66,127.33l.85-.17.53.56c-7.64,20.38-14.78,40.64-27.46,58.57-7.83,11.07-18.28,20.5-31.08,25.42-5.17,1.99-10.51,3-15.95,3.93,8.98-18.38,19.39-35.46,33.05-50.77,6.33-7.1,13.44-13.65,20.22-20.32l1.44-1.55-.5-.05c-15.04,12.1-29.87,26.38-41.91,41.51-5.86,7.36-10.72,15.69-16.93,22.73-.61-3.58-1.52-7.36-1.73-10.98-.51-8.84,3.72-19.1,8.48-26.38,15.82-24.18,43.45-36.76,70.99-42.51Z"/>
  <path class="cls-4" d="M425.1,129.33c5.09.92,10.35,3.06,15.15,4.95,6.23,2.44,12.52,4.95,18.51,7.92,21.03,10.45,40.02,21.85,48.08,45.22,1.98,5.77,2.21,11.72,4.15,17.5-5.2-3.06-9.88-7.34-14.47-11.22l-34.85-30.92c-1.8-1.5-6.18-5.99-8.31-6.32l3.25,3.46c11.71,9.92,21.67,22.08,32.24,33.15,6.14,6.44,14.14,12.82,18.83,20.34-12.9,1.03-24.88-.78-35.84-7.94-12.15-7.93-21.09-19.82-28.49-32.09-8.39-13.9-14.92-28.09-18.23-44.05Z"/>
  <path class="cls-1" d="M607.16,222.44l27.35.8-40.93,39.74c-12.69,10.86-28.67,20.02-45.6,21.57-5.68.52-11.49-.02-17.17-.46l15.01-14.11c8.88-7.82,18.85-14.84,28.97-20.95l24.13-11.73c-3.77.37-8.35,2.77-11.9,4.19-20.28,8.14-40.59,18.74-56.65,33.77.77-10.27,2.58-20.51,9.79-28.43,16.89-18.53,43.17-23.45,67-24.42Z"/>
  <path class="cls-4" d="M112.31,45.43c12.38,20.68,23.67,45.55,23.77,70.07.07,17.5-7.73,30.85-19.75,42.98l-2.53-66.45-.46-.2-5.1,65.22-.47-.37-.76-.63c-7.98-6.6-14.23-16.84-16.84-26.85-7.36-28.25,8.19-59.98,22.14-83.78Z"/>
  <path class="cls-2" d="M375.57,67.1l.36,23.64-45.58,14.25c-3.59,1.13-9.34,4.08-13.05,3.97-2.83-.09-6.18-1.56-8.88-2.44l-18.97-6.38-28.63-9.37-.17-23.3c5.03.54,10.34.2,15.41.19l27.43-.05,50.1.14,14.02.04c2.53,0,5.64.38,7.97-.69Z"/>
  <path class="cls-2" d="M402.01,52.18l-24.66,11.61-.24-.5-.38-.74c-.48-.98-.78-1.68-1.65-2.37-2.26-1.81-5.15-3.17-7.7-4.55l-13.95-7.31-35.97-18.08-33.95,17.42c-7.93,4.15-19.08,8.22-24.92,14.98l-.57.66-33.56-17.21c4.97-3.11,10.91-5.48,16.18-8.09l29.52-14.83,30.26-15.36c4.97-2.49,10.14-5.47,15.38-7.32.5-.18.98-.53,1.5-.51,1.3.06,5.24,2.48,6.71,3.18l29.93,14.86,58.91,28.89c-1.23,1.11-3.24,1.82-4.74,2.57l-6.1,2.68Z"/>
  <path class="cls-6" d="M271.21,251.32c.73-3.35.43-7.1.44-10.53.03-9.1-.67-19.05.65-28.04l.37-2.57c1.07-6.83,5.84-13.57,11.59-17.43,4.57-3.07,10.68-4.01,15.81-5.88.59-.22,3.59-1.64,4.02-1.58.24.03,4.48,3.87,5.12,4.27,1.52.96,3.23,1.39,4.99,1.73,6.53,1.24,11.43-1.53,16.6-5.02,6.66,3.18,14.63,4.14,20.63,8.59,7.11,5.27,9.33,10.95,10.53,19.57l.11,23.41c.03,4.38-.31,9.43.73,13.69.75.22,1.43.39,2.12.76-12.23,11.51-23.33,24.29-32.44,38.41-6.23,9.65-11.3,19.76-16.36,30.05-11.03-26.32-27.81-48.4-47.48-68.8l1.63-.97.94.35Z"/>
  <path class="cls-2" d="M317.14,457.44c-1.8-1.82-1.71-4.54-2.51-6.88-1.99-5.84-6.26-12.62-10.2-17.31-11.28-13.4-25.44-23.92-39.46-34.24-22.54-16.61-46.78-32.83-72.03-45.02l-.28-133.54,30.5,14.01c44,25.21,79.6,67.51,93.01,116.81l-.06,59.68.05,27.17c.05,4.36-.57,10.91,1.44,14.79l.1,2.9-.57,1.62Z"/>
  <path class="cls-1" d="M316.18,351.27l.32-.97c3.1-9.4,5.77-18.4,9.94-27.47,19.02-41.3,53.72-73.28,93.71-93.92l20.88-8.79-.08,132.95-20.28,11.77-52.32,32.3c-20.06,13.68-44.55,31.05-50.75,55.78-2.01-3.89-1.4-10.43-1.44-14.79l-.05-27.17.06-59.68Z"/>
  <path class="cls-7" d="M524.69,201.35c1.34,6.42,1.17,13.43,1.72,19.97,4.4,51.58-7.05,101.35-35.6,144.73-25.09,38.11-62.34,64.7-100.45,88.49-16.35,10.2-33.15,20.03-48.62,31.54-8.89,6.61-17,14.07-25.11,21.6-22.59-23.61-52.18-39.16-79.5-56.46-21.37-13.53-42.65-28.14-61.33-45.24-18.98-17.39-36.91-39.1-48.64-62.12-15.98-31.36-22.21-65.73-21.46-100.7.23-10.44,1.37-20.48,2.79-30.81,2.1-15.37,5.31-31.23,11.57-45.5-1.52,9.8-4.5,19.17-5.65,29.11-5.7,49.37,2.04,102.65,32.01,143.55,14.64,19.99,35.39,37.43,56.93,49.57,11.86,6.7,24.24,12.43,36.83,17.61l22.56,8.91c19.03,7.16,39.22,15.15,49.63,33.95,1.34,2.42,3.59,6.03,3.89,8.79l.6-.22.27-.66.57-1.62c5.22-13.35,15.83-24.07,28.42-30.76,10.42-5.53,22.09-8.85,33.15-12.86,10.48-3.8,20.66-8.21,30.74-12.96,23.49-11.07,44.54-24.99,62.16-44.22,22.3-24.33,38.84-54.6,45.66-87.04,4.84-23.02,5.22-46.03,4.2-69.43l-1.19-16.79c-.23-2.51-1.05-5.58-.54-8.04,1.97,8.93,4.16,18.46,4.38,27.64Z"/>
</svg>